#define dbm_width 30
#define dbm_height 200
static unsigned char dbm_bits[] = {
   0x00, 0x00, 0x00, 0x00, 0x00, 0x00, 0x00, 0x00, 0x00, 0x00, 0x00, 0x00,
   0x00, 0x00, 0x00, 0x00, 0x00, 0x00, 0x00, 0x00, 0x00, 0x00, 0x1c, 0x00,
   0x00, 0x00, 0x22, 0x00, 0x00, 0x00, 0x22, 0x00, 0x00, 0x00, 0x22, 0x00,
   0x00, 0x00, 0x22, 0x00, 0x00, 0x00, 0x22, 0x3e, 0x00, 0x00, 0x22, 0x00,
   0x00, 0x00, 0x22, 0x00, 0x00, 0x00, 0x1c, 0x00, 0x00, 0x00, 0x00, 0x00,
   0x00, 0x00, 0x00, 0x00, 0x00, 0x00, 0x00, 0x30, 0x00, 0x00, 0x00, 0x00,
   0x00, 0x00, 0x00, 0x00, 0x00, 0x00, 0x00, 0x00, 0x00, 0x00, 0x00, 0x00,
   0x00, 0x00, 0x00, 0x00, 0x00, 0x00, 0x00, 0x00, 0x00, 0x00, 0x00, 0x30,
   0x00, 0x00, 0x00, 0x00, 0x00, 0x20, 0x3e, 0x00, 0x00, 0x38, 0x02, 0x00,
   0x00, 0x20, 0x02, 0x00, 0x00, 0x20, 0x1e, 0x00, 0x00, 0x20, 0x22, 0x00,
   0x00, 0x23, 0x20, 0x3e, 0x00, 0x20, 0x20, 0x00, 0x00, 0x20, 0x22, 0x00,
   0x00, 0x20, 0x1c, 0x00, 0x00, 0x00, 0x00, 0x00, 0x00, 0x00, 0x00, 0x00,
   0x00, 0x00, 0x00, 0x00, 0x00, 0x00, 0x00, 0x30, 0x00, 0x00, 0x00, 0x00,
   0x00, 0x00, 0x00, 0x00, 0x00, 0x00, 0x00, 0x00, 0x00, 0x00, 0x00, 0x00,
   0x00, 0x00, 0x00, 0x00, 0x00, 0x00, 0x00, 0x00, 0x00, 0x00, 0x00, 0x30,
   0x00, 0x00, 0x00, 0x00, 0x00, 0x70, 0x1c, 0x00, 0x00, 0x88, 0x22, 0x00,
   0x00, 0x80, 0x22, 0x00, 0x00, 0x80, 0x22, 0x00, 0x00, 0x60, 0x22, 0x00,
   0x00, 0x83, 0x22, 0x3e, 0x00, 0x80, 0x22, 0x00, 0x00, 0x88, 0x22, 0x00,
   0x00, 0x70, 0x1c, 0x00, 0x00, 0x00, 0x00, 0x00, 0x00, 0x00, 0x00, 0x00,
   0x00, 0x00, 0x00, 0x00, 0x00, 0x00, 0x00, 0x30, 0x00, 0x00, 0x00, 0x00,
   0x00, 0x00, 0x00, 0x00, 0x00, 0x00, 0x00, 0x00, 0x00, 0x00, 0x00, 0x00,
   0x00, 0x00, 0x00, 0x00, 0x00, 0x00, 0x00, 0x00, 0x00, 0x00, 0x00, 0x30,
   0x00, 0x00, 0x00, 0x00, 0x00, 0x40, 0x3e, 0x00, 0x00, 0x60, 0x02, 0x00,
   0x00, 0x60, 0x02, 0x00, 0x00, 0x50, 0x1e, 0x00, 0x00, 0x50, 0x22, 0x00,
   0x00, 0x4b, 0x20, 0x3e, 0x00, 0xf8, 0x20, 0x00, 0x00, 0x40, 0x22, 0x00,
   0x00, 0x40, 0x1c, 0x00, 0x00, 0x00, 0x00, 0x00, 0x00, 0x00, 0x00, 0x00,
   0x00, 0x00, 0x00, 0x00, 0x00, 0x00, 0x00, 0x30, 0x00, 0x00, 0x00, 0x00,
   0x00, 0x00, 0x00, 0x00, 0x00, 0x00, 0x00, 0x00, 0x00, 0x00, 0x00, 0x00,
   0x00, 0x00, 0x00, 0x00, 0x00, 0x00, 0x00, 0x00, 0x00, 0x00, 0x00, 0x30,
   0x00, 0x00, 0x00, 0x00, 0x00, 0x70, 0x1c, 0x00, 0x00, 0x88, 0x22, 0x00,
   0x00, 0x08, 0x22, 0x00, 0x00, 0x08, 0x22, 0x00, 0x00, 0x78, 0x22, 0x00,
   0x00, 0x8b, 0x22, 0x3e, 0x00, 0x88, 0x22, 0x00, 0x00, 0x88, 0x22, 0x00,
   0x00, 0x70, 0x1c, 0x00, 0x00, 0x00, 0x00, 0x00, 0x00, 0x00, 0x00, 0x00,
   0x00, 0x00, 0x00, 0x00, 0x00, 0x00, 0x00, 0x30, 0x00, 0x00, 0x00, 0x00,
   0x00, 0x00, 0x00, 0x00, 0x00, 0x00, 0x00, 0x00, 0x00, 0x00, 0x00, 0x00,
   0x00, 0x00, 0x00, 0x00, 0x00, 0x00, 0x00, 0x00, 0x00, 0x00, 0x00, 0x30,
   0x00, 0x00, 0x00, 0x00, 0x00, 0xf8, 0x3e, 0x00, 0x00, 0x80, 0x02, 0x00,
   0x00, 0x40, 0x02, 0x00, 0x00, 0x40, 0x1e, 0x00, 0x00, 0x20, 0x22, 0x00,
   0x00, 0x23, 0x20, 0x3e, 0x00, 0x10, 0x20, 0x00, 0x00, 0x10, 0x22, 0x00,
   0x00, 0x10, 0x1c, 0x00, 0x00, 0x00, 0x00, 0x00, 0x00, 0x00, 0x00, 0x00,
   0x00, 0x00, 0x00, 0x00, 0x00, 0x00, 0x00, 0x30, 0x00, 0x00, 0x00, 0x00,
   0x00, 0x00, 0x00, 0x00, 0x00, 0x00, 0x00, 0x00, 0x00, 0x00, 0x00, 0x00,
   0x00, 0x00, 0x00, 0x00, 0x00, 0x00, 0x00, 0x00, 0x00, 0x00, 0x00, 0x30,
   0x00, 0x00, 0x00, 0x00, 0x00, 0x70, 0x1c, 0x00, 0x00, 0x88, 0x22, 0x00,
   0x00, 0x88, 0x22, 0x00, 0x00, 0x88, 0x22, 0x00, 0x00, 0xf0, 0x22, 0x00,
   0x00, 0x83, 0x22, 0x3e, 0x00, 0x80, 0x22, 0x00, 0x00, 0x88, 0x22, 0x00,
   0x00, 0x70, 0x1c, 0x00, 0x00, 0x00, 0x00, 0x00, 0x00, 0x00, 0x00, 0x00,
   0x00, 0x00, 0x00, 0x00, 0x00, 0x00, 0x00, 0x30, 0x00, 0x00, 0x00, 0x00,
   0x00, 0x00, 0x00, 0x00, 0x00, 0x00, 0x00, 0x00, 0x00, 0x00, 0x00, 0x00,
   0x00, 0x00, 0x00, 0x00, 0x00, 0x00, 0x00, 0x00, 0x00, 0x00, 0x00, 0x30,
   0x80, 0x70, 0x10, 0x00, 0xe0, 0x88, 0x18, 0x00, 0x80, 0x88, 0x18, 0x00,
   0x80, 0x88, 0x14, 0x00, 0x80, 0x88, 0x14, 0x00, 0x8c, 0x88, 0x12, 0x3e,
   0x80, 0x88, 0x3e, 0x00, 0x80, 0x88, 0x10, 0x00, 0x80, 0x70, 0x10, 0x00,
   0x00, 0x00, 0x00, 0x00, 0x00, 0x00, 0x00, 0x30, 0x00, 0x00, 0x00, 0x00,
   0x00, 0x00, 0x00, 0x00, 0x00, 0x00, 0x00, 0x00, 0x00, 0x00, 0x00, 0x00,
   0x00, 0x00, 0x00, 0x00, 0x00, 0x00, 0x00, 0x30, 0x80, 0x20, 0x1c, 0x00,
   0xe0, 0x38, 0x22, 0x00, 0x80, 0x20, 0x02, 0x00, 0x80, 0x20, 0x02, 0x00,
   0x80, 0x20, 0x1e, 0x00, 0x8c, 0x20, 0x22, 0x3e, 0x80, 0x20, 0x22, 0x00,
   0x80, 0x20, 0x22, 0x00, 0x80, 0x20, 0x1c, 0x00, 0x00, 0x00, 0x00, 0x00,
   0x00, 0x00, 0x00, 0x30, 0x00, 0x00, 0x00, 0x00, 0x00, 0x00, 0x00, 0x00,
   0x00, 0x00, 0x00, 0x00, 0x00, 0x00, 0x00, 0x00, 0x00, 0x00, 0x00, 0x00,
   0x00, 0x00, 0x00, 0x30, 0x80, 0x70, 0x1c, 0x00, 0xe0, 0x88, 0x22, 0x00,
   0x80, 0x80, 0x22, 0x00, 0x80, 0x80, 0x22, 0x00, 0x80, 0x40, 0x1c, 0x00,
   0x8c, 0x20, 0x22, 0x3e, 0x80, 0x10, 0x22, 0x00, 0x80, 0x08, 0x22, 0x00,
   0x80, 0xf8, 0x1c, 0x00, 0x00, 0x00, 0x00, 0x00, 0x00, 0x00, 0x00, 0x00,
   0x00, 0x00, 0x00, 0x00, 0x00, 0x00, 0x00, 0x00, 0x00, 0x00, 0x00, 0x00,
   0x00, 0x00, 0x00, 0x00, 0x00, 0x00, 0x00, 0x00 };
