#define smeter_width 30
#define smeter_height 200
static unsigned char smeter_bits[] = {
   0x00, 0x00, 0x00, 0x00, 0x00, 0x00, 0x00, 0x00, 0x00, 0x00, 0x00, 0x00,
   0x00, 0x00, 0x00, 0x00, 0x00, 0x00, 0x00, 0x00, 0x80, 0xef, 0x03, 0x00,
   0x00, 0x28, 0x00, 0x00, 0x00, 0x24, 0x00, 0x00, 0x08, 0xe4, 0x01, 0x00,
   0x08, 0x22, 0x02, 0x3f, 0x3e, 0x02, 0x02, 0x3f, 0x08, 0x01, 0x02, 0x00,
   0x08, 0x21, 0x02, 0x00, 0x00, 0xc1, 0x01, 0x00, 0x00, 0x00, 0x00, 0x00,
   0x00, 0x00, 0x00, 0x00, 0x00, 0x00, 0x00, 0x00, 0x00, 0x00, 0x00, 0x3c,
   0x00, 0x00, 0x00, 0x00, 0x00, 0x00, 0x00, 0x00, 0x00, 0x00, 0x00, 0x00,
   0x00, 0x00, 0x00, 0x00, 0x00, 0x00, 0x00, 0x00, 0x00, 0x00, 0x00, 0x00,
   0x00, 0x00, 0x00, 0x3c, 0x00, 0x00, 0x00, 0x00, 0x00, 0xc7, 0x01, 0x00,
   0x80, 0x28, 0x02, 0x00, 0x80, 0x20, 0x02, 0x00, 0x88, 0x20, 0x02, 0x00,
   0x88, 0x27, 0x02, 0x3f, 0xbe, 0x28, 0x02, 0x3f, 0x88, 0x28, 0x02, 0x00,
   0x88, 0x28, 0x02, 0x00, 0x00, 0xc7, 0x01, 0x00, 0x00, 0x00, 0x00, 0x00,
   0x00, 0x00, 0x00, 0x00, 0x00, 0x00, 0x00, 0x00, 0x00, 0x00, 0x00, 0x3c,
   0x00, 0x00, 0x00, 0x00, 0x00, 0x00, 0x00, 0x00, 0x00, 0x00, 0x00, 0x00,
   0x00, 0x00, 0x00, 0x00, 0x00, 0x00, 0x00, 0x00, 0x00, 0x00, 0x00, 0x00,
   0x00, 0x00, 0x00, 0x3c, 0x00, 0x00, 0x00, 0x00, 0x00, 0xe4, 0x03, 0x00,
   0x00, 0x26, 0x00, 0x00, 0x00, 0x26, 0x00, 0x00, 0x08, 0xe5, 0x01, 0x00,
   0x08, 0x25, 0x02, 0x3f, 0xbe, 0x04, 0x02, 0x3f, 0x88, 0x0f, 0x02, 0x00,
   0x08, 0x24, 0x02, 0x00, 0x00, 0xc4, 0x01, 0x00, 0x00, 0x00, 0x00, 0x00,
   0x00, 0x00, 0x00, 0x00, 0x00, 0x00, 0x00, 0x00, 0x00, 0x00, 0x00, 0x3c,
   0x00, 0x00, 0x00, 0x00, 0x00, 0x00, 0x00, 0x00, 0x00, 0x00, 0x00, 0x00,
   0x00, 0x00, 0x00, 0x00, 0x00, 0x00, 0x00, 0x00, 0x00, 0x00, 0x00, 0x00,
   0x00, 0x00, 0x00, 0x3c, 0x00, 0x00, 0x00, 0x00, 0x00, 0xc7, 0x01, 0x00,
   0x80, 0x28, 0x02, 0x00, 0x00, 0x28, 0x02, 0x00, 0x08, 0x28, 0x02, 0x00,
   0x08, 0x26, 0x02, 0x3f, 0x3e, 0x28, 0x02, 0x3f, 0x08, 0x28, 0x02, 0x00,
   0x88, 0x28, 0x02, 0x00, 0x00, 0xc7, 0x01, 0x00, 0x00, 0x00, 0x00, 0x00,
   0x00, 0x00, 0x00, 0x00, 0x00, 0x00, 0x00, 0x00, 0x00, 0x00, 0x00, 0x3c,
   0x00, 0x00, 0x00, 0x00, 0x00, 0x00, 0x00, 0x00, 0x00, 0x00, 0x00, 0x00,
   0x00, 0x00, 0x00, 0x00, 0x00, 0x00, 0x00, 0x00, 0x00, 0x00, 0x00, 0x00,
   0x00, 0x00, 0x00, 0x3c, 0x00, 0x00, 0x00, 0x00, 0x00, 0xe2, 0x03, 0x00,
   0x80, 0x23, 0x00, 0x00, 0x00, 0x22, 0x00, 0x00, 0x08, 0xe2, 0x01, 0x00,
   0x08, 0x22, 0x02, 0x3f, 0x3e, 0x02, 0x02, 0x3f, 0x08, 0x02, 0x02, 0x00,
   0x08, 0x22, 0x02, 0x00, 0x00, 0xc2, 0x01, 0x00, 0x00, 0x00, 0x00, 0x00,
   0x00, 0x00, 0x00, 0x00, 0x00, 0x00, 0x00, 0x00, 0x00, 0x00, 0x00, 0x3c,
   0x00, 0x00, 0x00, 0x00, 0x00, 0x00, 0x00, 0x00, 0x00, 0x00, 0x00, 0x00,
   0x00, 0x00, 0x00, 0x00, 0x00, 0x00, 0x00, 0x00, 0x00, 0x00, 0x00, 0x00,
   0x00, 0x00, 0x00, 0x3c, 0x00, 0x00, 0x00, 0x00, 0x80, 0xc3, 0x01, 0x00,
   0x40, 0x24, 0x02, 0x00, 0x40, 0x20, 0x02, 0x00, 0x40, 0x20, 0x02, 0x00,
   0x80, 0xc3, 0x03, 0x3f, 0x00, 0x04, 0x02, 0x3f, 0x00, 0x04, 0x02, 0x00,
   0x40, 0x24, 0x02, 0x00, 0x80, 0xc3, 0x01, 0x00, 0x00, 0x00, 0x00, 0x00,
   0x00, 0x00, 0x00, 0x00, 0x00, 0x00, 0x00, 0x00, 0x00, 0x00, 0x00, 0x3c,
   0x00, 0x00, 0x00, 0x00, 0x00, 0x00, 0x00, 0x00, 0x00, 0x00, 0x00, 0x00,
   0x00, 0x00, 0x00, 0x00, 0x00, 0x00, 0x00, 0x00, 0x00, 0x00, 0x00, 0x00,
   0x00, 0x00, 0x00, 0x3c, 0x00, 0x00, 0x00, 0x00, 0x80, 0xc3, 0x01, 0x00,
   0x40, 0x24, 0x02, 0x00, 0x40, 0x20, 0x00, 0x00, 0x40, 0x20, 0x00, 0x00,
   0x80, 0xe3, 0x01, 0x3f, 0x00, 0x24, 0x02, 0x3f, 0x00, 0x24, 0x02, 0x00,
   0x40, 0x24, 0x02, 0x00, 0x80, 0xc3, 0x01, 0x00, 0x00, 0x00, 0x00, 0x00,
   0x00, 0x00, 0x00, 0x00, 0x00, 0x00, 0x00, 0x00, 0x00, 0x00, 0x00, 0x00,
   0x00, 0x00, 0x00, 0x3c, 0x00, 0x00, 0x00, 0x00, 0x00, 0x00, 0x00, 0x00,
   0x00, 0x00, 0x00, 0x00, 0x00, 0x00, 0x00, 0x00, 0x00, 0x00, 0x00, 0x00,
   0x00, 0x00, 0x00, 0x00, 0x00, 0x00, 0x00, 0x3c, 0x00, 0x00, 0x00, 0x00,
   0x80, 0xc3, 0x01, 0x00, 0x40, 0x24, 0x02, 0x00, 0x40, 0x00, 0x02, 0x00,
   0x40, 0x00, 0x02, 0x00, 0x80, 0x83, 0x01, 0x3f, 0x00, 0x04, 0x02, 0x3f,
   0x00, 0x04, 0x02, 0x00, 0x40, 0x24, 0x02, 0x00, 0x80, 0xc3, 0x01, 0x00,
   0x00, 0x00, 0x00, 0x00, 0x00, 0x00, 0x00, 0x00, 0x00, 0x00, 0x00, 0x00,
   0x00, 0x00, 0x00, 0x3c, 0x00, 0x00, 0x00, 0x00, 0x00, 0x00, 0x00, 0x00,
   0x00, 0x00, 0x00, 0x00, 0x00, 0x00, 0x00, 0x00, 0x00, 0x00, 0x00, 0x00,
   0x00, 0x00, 0x00, 0x00, 0x00, 0x00, 0x00, 0x3c, 0x00, 0x00, 0x00, 0x00,
   0x80, 0xc3, 0x01, 0x00, 0x40, 0x24, 0x02, 0x00, 0x40, 0x20, 0x02, 0x00,
   0x40, 0x20, 0x02, 0x00, 0x80, 0x23, 0x02, 0x3f, 0x00, 0x24, 0x02, 0x3f,
   0x00, 0x24, 0x02, 0x00, 0x40, 0x24, 0x02, 0x00, 0x80, 0xc3, 0x01, 0x00,
   0x00, 0x00, 0x00, 0x00, 0x00, 0x00, 0x00, 0x00, 0x00, 0x00, 0x00, 0x00,
   0x00, 0x00, 0x00, 0x00, 0x00, 0x00, 0x00, 0x00, 0x00, 0x00, 0x00, 0x00,
   0x00, 0x00, 0x00, 0x00, 0x00, 0x00, 0x00, 0x00, 0x00, 0x00, 0x00, 0x00,
   0x00, 0x00, 0x00, 0x00, 0x00, 0x00, 0x00, 0x00, 0x00, 0x00, 0x00, 0x00,
   0x00, 0x00, 0x00, 0x00, 0x00, 0x00, 0x00, 0x00, 0x00, 0x00, 0x00, 0x00,
   0x00, 0x00, 0x00, 0x00, 0x00, 0x00, 0x00, 0x00 };
