#define smeter_width 40
#define smeter_height 200
static unsigned char smeter_bits[] = {
   0x00, 0x00, 0x00, 0x00, 0x00, 0x00, 0x00, 0x00, 0x00, 0x00, 0x00, 0x00,
   0x00, 0x00, 0x00, 0x00, 0x00, 0x00, 0x00, 0x00, 0x00, 0x00, 0x00, 0x00,
   0x00, 0x00, 0x00, 0xbe, 0x0f, 0x00, 0x00, 0x00, 0xa0, 0x00, 0x00, 0x00,
   0x00, 0x90, 0x00, 0x00, 0x00, 0x20, 0x90, 0x07, 0x00, 0x00, 0x20, 0x88,
   0x08, 0x00, 0x00, 0xf8, 0x08, 0x08, 0xf8, 0x00, 0x20, 0x04, 0x08, 0x00,
   0x00, 0x20, 0x84, 0x08, 0x00, 0x00, 0x00, 0x04, 0x07, 0x00, 0x00, 0x00,
   0x00, 0x00, 0x00, 0x00, 0x00, 0x00, 0x00, 0x00, 0x00, 0x00, 0x00, 0x00,
   0x00, 0x00, 0x00, 0x00, 0x00, 0xc0, 0x00, 0x00, 0x00, 0x00, 0x00, 0x00,
   0x00, 0x00, 0x00, 0x00, 0x00, 0x00, 0x00, 0x00, 0x00, 0x00, 0x00, 0x00,
   0x00, 0x00, 0x00, 0x00, 0x00, 0x00, 0x00, 0x00, 0x00, 0x00, 0x00, 0x00,
   0x00, 0x00, 0x00, 0x00, 0xc0, 0x00, 0x00, 0x00, 0x00, 0x00, 0x00, 0x00,
   0x1c, 0x07, 0x00, 0x00, 0x00, 0xa2, 0x08, 0x00, 0x00, 0x00, 0x82, 0x08,
   0x00, 0x00, 0x20, 0x82, 0x08, 0x00, 0x00, 0x20, 0x9e, 0x08, 0x00, 0x00,
   0xf8, 0xa2, 0x08, 0xf8, 0x00, 0x20, 0xa2, 0x08, 0x00, 0x00, 0x20, 0xa2,
   0x08, 0x00, 0x00, 0x00, 0x1c, 0x07, 0x00, 0x00, 0x00, 0x00, 0x00, 0x00,
   0x00, 0x00, 0x00, 0x00, 0x00, 0x00, 0x00, 0x00, 0x00, 0x00, 0x00, 0x00,
   0x00, 0x00, 0xc0, 0x00, 0x00, 0x00, 0x00, 0x00, 0x00, 0x00, 0x00, 0x00,
   0x00, 0x00, 0x00, 0x00, 0x00, 0x00, 0x00, 0x00, 0x00, 0x00, 0x00, 0x00,
   0x00, 0x00, 0x00, 0x00, 0x00, 0x00, 0x00, 0x00, 0x00, 0x00, 0x00, 0x00,
   0x00, 0xc0, 0x00, 0x00, 0x00, 0x00, 0x00, 0x00, 0x00, 0x90, 0x0f, 0x00,
   0x00, 0x00, 0x98, 0x00, 0x00, 0x00, 0x00, 0x98, 0x00, 0x00, 0x00, 0x20,
   0x94, 0x07, 0x00, 0x00, 0x20, 0x94, 0x08, 0x00, 0x00, 0xf8, 0x12, 0x08,
   0xf8, 0x00, 0x20, 0x3e, 0x08, 0x00, 0x00, 0x20, 0x90, 0x08, 0x00, 0x00,
   0x00, 0x10, 0x07, 0x00, 0x00, 0x00, 0x00, 0x00, 0x00, 0x00, 0x00, 0x00,
   0x00, 0x00, 0x00, 0x00, 0x00, 0x00, 0x00, 0x00, 0x00, 0x00, 0x00, 0xc0,
   0x00, 0x00, 0x00, 0x00, 0x00, 0x00, 0x00, 0x00, 0x00, 0x00, 0x00, 0x00,
   0x00, 0x00, 0x00, 0x00, 0x00, 0x00, 0x00, 0x00, 0x00, 0x00, 0x00, 0x00,
   0x00, 0x00, 0x00, 0x00, 0x00, 0x00, 0x00, 0x00, 0x00, 0x00, 0xc0, 0x00,
   0x00, 0x00, 0x00, 0x00, 0x00, 0x00, 0x1c, 0x07, 0x00, 0x00, 0x00, 0xa2,
   0x08, 0x00, 0x00, 0x00, 0xa0, 0x08, 0x00, 0x00, 0x20, 0xa0, 0x08, 0x00,
   0x00, 0x20, 0x98, 0x08, 0x00, 0x00, 0xf8, 0xa0, 0x08, 0xf8, 0x00, 0x20,
   0xa0, 0x08, 0x00, 0x00, 0x20, 0xa2, 0x08, 0x00, 0x00, 0x00, 0x1c, 0x07,
   0x00, 0x00, 0x00, 0x00, 0x00, 0x00, 0x00, 0x00, 0x00, 0x00, 0x00, 0x00,
   0x00, 0x00, 0x00, 0x00, 0x00, 0x00, 0x00, 0x00, 0xc0, 0x00, 0x00, 0x00,
   0x00, 0x00, 0x00, 0x00, 0x00, 0x00, 0x00, 0x00, 0x00, 0x00, 0x00, 0x00,
   0x00, 0x00, 0x00, 0x00, 0x00, 0x00, 0x00, 0x00, 0x00, 0x00, 0x00, 0x00,
   0x00, 0x00, 0x00, 0x00, 0x00, 0x00, 0x00, 0xc0, 0x00, 0x00, 0x00, 0x00,
   0x00, 0x00, 0x00, 0x88, 0x0f, 0x00, 0x00, 0x00, 0x8e, 0x00, 0x00, 0x00,
   0x00, 0x88, 0x00, 0x00, 0x00, 0x20, 0x88, 0x07, 0x00, 0x00, 0x20, 0x88,
   0x08, 0x00, 0x00, 0xf8, 0x08, 0x08, 0xf8, 0x00, 0x20, 0x08, 0x08, 0x00,
   0x00, 0x20, 0x88, 0x08, 0x00, 0x00, 0x00, 0x08, 0x07, 0x00, 0x00, 0x00,
   0x00, 0x00, 0x00, 0x00, 0x00, 0x00, 0x00, 0x00, 0x00, 0x00, 0x00, 0x00,
   0x00, 0x00, 0x00, 0x00, 0x00, 0xc0, 0x00, 0x00, 0x00, 0x00, 0x00, 0x00,
   0x00, 0x00, 0x00, 0x00, 0x00, 0x00, 0x00, 0x00, 0x00, 0x00, 0x00, 0x00,
   0x00, 0x00, 0x00, 0x00, 0x00, 0x00, 0x00, 0x00, 0x00, 0x00, 0x00, 0x00,
   0x00, 0x00, 0x00, 0x00, 0xc0, 0x00, 0x00, 0x00, 0x00, 0x00, 0x00, 0x00,
   0x0e, 0x07, 0x00, 0x00, 0x00, 0x91, 0x08, 0x00, 0x00, 0x00, 0x81, 0x08,
   0x00, 0x00, 0x00, 0x81, 0x08, 0x00, 0x00, 0x00, 0x0e, 0x0f, 0x00, 0x00,
   0x00, 0x10, 0x08, 0xf8, 0x00, 0x00, 0x10, 0x08, 0x00, 0x00, 0x00, 0x91,
   0x08, 0x00, 0x00, 0x00, 0x0e, 0x07, 0x00, 0x00, 0x00, 0x00, 0x00, 0x00,
   0x00, 0x00, 0x00, 0x00, 0x00, 0x00, 0x00, 0x00, 0x00, 0x00, 0x00, 0x00,
   0x00, 0x00, 0xc0, 0x00, 0x00, 0x00, 0x00, 0x00, 0x00, 0x00, 0x00, 0x00,
   0x00, 0x00, 0x00, 0x00, 0x00, 0x00, 0x00, 0x00, 0x00, 0x00, 0x00, 0x00,
   0x00, 0x00, 0x00, 0x00, 0x00, 0x00, 0x00, 0x00, 0x00, 0x00, 0x00, 0x00,
   0x00, 0xc0, 0x00, 0x00, 0x00, 0x00, 0x00, 0x00, 0x00, 0x0e, 0x07, 0x00,
   0x00, 0x00, 0x91, 0x08, 0x00, 0x00, 0x00, 0x81, 0x00, 0x00, 0x00, 0x00,
   0x81, 0x00, 0x00, 0x00, 0x00, 0x8e, 0x07, 0x00, 0x00, 0x00, 0x90, 0x08,
   0xf8, 0x00, 0x00, 0x90, 0x08, 0x00, 0x00, 0x00, 0x91, 0x08, 0x00, 0x00,
   0x00, 0x0e, 0x07, 0x00, 0x00, 0x00, 0x00, 0x00, 0x00, 0x00, 0x00, 0x00,
   0x00, 0x00, 0x00, 0x00, 0x00, 0x00, 0x00, 0x00, 0x00, 0x00, 0x00, 0x00,
   0x00, 0x00, 0x00, 0x00, 0xc0, 0x00, 0x00, 0x00, 0x00, 0x00, 0x00, 0x00,
   0x00, 0x00, 0x00, 0x00, 0x00, 0x00, 0x00, 0x00, 0x00, 0x00, 0x00, 0x00,
   0x00, 0x00, 0x00, 0x00, 0x00, 0x00, 0x00, 0x00, 0x00, 0x00, 0x00, 0x00,
   0x00, 0x00, 0x00, 0xc0, 0x00, 0x00, 0x00, 0x00, 0x00, 0x00, 0x00, 0x0e,
   0x07, 0x00, 0x00, 0x00, 0x91, 0x08, 0x00, 0x00, 0x00, 0x01, 0x08, 0x00,
   0x00, 0x00, 0x01, 0x08, 0x00, 0x00, 0x00, 0x0e, 0x06, 0x00, 0x00, 0x00,
   0x10, 0x08, 0xf8, 0x00, 0x00, 0x10, 0x08, 0x00, 0x00, 0x00, 0x91, 0x08,
   0x00, 0x00, 0x00, 0x0e, 0x07, 0x00, 0x00, 0x00, 0x00, 0x00, 0x00, 0x00,
   0x00, 0x00, 0x00, 0x00, 0x00, 0x00, 0x00, 0x00, 0x00, 0x00, 0x00, 0x00,
   0x00, 0xc0, 0x00, 0x00, 0x00, 0x00, 0x00, 0x00, 0x00, 0x00, 0x00, 0x00,
   0x00, 0x00, 0x00, 0x00, 0x00, 0x00, 0x00, 0x00, 0x00, 0x00, 0x00, 0x00,
   0x00, 0x00, 0x00, 0x00, 0x00, 0x00, 0x00, 0x00, 0x00, 0x00, 0x00, 0x00,
   0xc0, 0x00, 0x00, 0x00, 0x00, 0x00, 0x00, 0x00, 0x0e, 0x07, 0x00, 0x00,
   0x00, 0x91, 0x08, 0x00, 0x00, 0x00, 0x81, 0x08, 0x00, 0x00, 0x00, 0x81,
   0x08, 0x00, 0x00, 0x00, 0x8e, 0x08, 0x00, 0x00, 0x00, 0x90, 0x08, 0xf8,
   0x00, 0x00, 0x90, 0x08, 0x00, 0x00, 0x00, 0x91, 0x08, 0x00, 0x00, 0x00,
   0x0e, 0x07, 0x00, 0x00, 0x00, 0x00, 0x00, 0x00, 0x00, 0x00, 0x00, 0x00,
   0x00, 0x00, 0x00, 0x00, 0x00, 0x00, 0x00, 0x00, 0x00, 0x00, 0x00, 0x00,
   0x00, 0x00, 0x00, 0x00, 0x00, 0x00, 0x00, 0x00, 0x00, 0x00, 0x00, 0x00,
   0x00, 0x00, 0x00, 0x00, 0x00, 0x00, 0x00, 0x00, 0x00, 0x00, 0x00, 0x00,
   0x00, 0x00, 0x00, 0x00, 0x00, 0x00, 0x00, 0x00, 0x00, 0x00, 0x00, 0x00,
   0x00, 0x00, 0x00, 0x00, 0x00, 0x00, 0x00, 0x00, 0x00, 0x00, 0x00, 0x00,
   0x00, 0x00, 0x00, 0x00, 0x00, 0x00, 0x00, 0x00, 0x00, 0x00, 0x00, 0x00,
   0x00, 0x00, 0x00, 0x00 };
